<svg width="65" height="24" viewBox="0 0 65 24" fill="none" xmlns="http://www.w3.org/2000/svg">
<path d="M21.2855 18.8463C21.2855 18.3992 21.3446 17.6524 21.512 16.8565C20.9648 17.5261 20.2685 18.0591 19.4784 18.4131C18.6883 18.767 17.8264 18.9322 16.9611 18.8954C13.8926 18.8954 12.8977 17.225 13.3705 15.0141C14.0994 11.5996 17.5324 10.3566 22.8764 10.5777C23.1867 9.23644 23.2753 7.98854 21.8568 7.98854C20.9801 7.98854 20.0591 8.4651 19.7783 9.88004H15.2864C15.4342 9.31013 15.6608 8.2391 16.8133 7.26633C18.0052 6.2739 20.0739 5.69908 22.3444 5.69908C23.4674 5.69908 25.8315 5.84647 26.8757 7.1435C27.516 7.91484 27.5653 9.08414 27.2747 10.4303L26.0335 16.2571C25.8561 17.1086 25.7702 17.9766 25.7774 18.8463H21.2855V18.8463ZM18.0791 14.5867C17.8821 15.5103 18.3155 16.2817 19.4385 16.2817C19.8605 16.271 20.2734 16.1564 20.6403 15.9481C21.0072 15.7398 21.3168 15.4443 21.5416 15.0878C21.9828 14.3732 22.2712 13.5754 22.3888 12.7443C20.3891 12.7689 18.4584 12.7935 18.0791 14.5867V14.5867ZM38.3468 6.20021L37.7065 9.18731H34.6922L33.7662 13.5206C33.4658 15.0633 33.3131 15.7609 35.1108 15.7609C35.4852 15.7609 35.7117 15.7609 36.2978 15.6823L35.6723 18.6203C35.032 18.7185 34.1799 18.8463 32.5841 18.8463C28.8409 18.8463 28.3533 17.6033 28.8705 15.1861L30.151 9.18731H27.777L28.4173 6.19529H30.8603L31.274 4.25466L36.1747 2.46141L35.3768 6.19529H38.3468V6.20021ZM46.0598 10.5286C46.3061 9.35926 46.0647 8.38649 44.8432 8.38649C43.1194 8.38649 42.351 10.1306 41.8831 12.3218C41.1936 15.5595 41.9324 16.3062 43.1046 16.3062C44.7004 16.3062 45.1437 14.7144 45.3456 13.7662H50.0838C49.4386 16.9302 46.4637 18.9445 42.6663 18.9445C38.6768 18.9445 36.0811 16.8319 37.0416 12.3218C38.0906 7.39406 41.9176 5.72364 45.4343 5.72364C46.7838 5.72364 49.0051 5.94964 50.1183 7.51689C50.9506 8.66162 50.8078 9.80635 50.6994 10.5286H46.0598V10.5286ZM9.21846 10.5286C9.46473 9.35926 9.22832 8.38649 8.00191 8.38649C6.27805 8.38649 5.5097 10.1306 5.04672 12.3218C4.35718 15.5595 5.09598 16.3062 6.2682 16.3062C7.864 16.3062 8.30236 14.7144 8.50429 13.7662H13.2474C12.5972 16.9302 9.62234 18.9445 5.82985 18.9445C1.83542 18.9445 -0.760219 16.8319 0.200217 12.3218C1.25423 7.39406 5.07628 5.72364 8.59787 5.72364C9.94249 5.72364 12.1687 5.94964 13.2769 7.51689C14.1093 8.66162 13.9665 9.80635 13.8581 10.5286H9.21846V10.5286ZM52.9996 0.29478L58.1711 0L56.6837 7.34493C57.9758 6.24535 59.5853 5.58459 61.279 5.45834C62.5005 5.38465 63.259 5.61556 64.1357 6.50972C65.2143 7.56111 65.0075 8.94657 64.7464 10.7103L63.653 18.9642H58.9937L60.0083 11.5554C60.1659 10.4991 60.9096 8.45036 58.969 8.57318C57.4717 8.66653 56.4965 9.92917 56.2995 10.4401C56.0877 11.0297 55.9695 11.8305 55.8119 12.8868L54.95 18.9642H50.2709L52.9996 0.29478ZM42.1885 23.4792C42.1885 23.1353 42.4298 22.8454 42.7894 22.8454C43.0948 22.8454 43.3016 23.0665 43.3016 23.3761C43.3051 23.4572 43.2917 23.5382 43.2623 23.6139C43.2328 23.6896 43.1881 23.7585 43.1307 23.8162C43.0734 23.8738 43.0047 23.919 42.929 23.949C42.8533 23.9789 42.7723 23.993 42.6909 23.9902C42.3855 23.9902 42.1885 23.774 42.1885 23.4792V23.4792ZM46.0056 23.8379C45.8135 23.9312 45.5032 23.9902 45.1437 23.9902C44.395 23.9902 43.8631 23.5431 43.8631 22.757C43.8631 21.6762 44.6906 20.8409 45.848 20.8409C46.1041 20.8409 46.3307 20.8901 46.4588 20.9392L46.242 21.6221C46.1122 21.57 45.9731 21.5449 45.8332 21.5484C45.1929 21.5484 44.8038 22.0888 44.8038 22.6538C44.8038 23.0714 45.0649 23.2827 45.3949 23.2827C45.6036 23.2833 45.8101 23.2397 46.0007 23.155L46.0056 23.8379V23.8379ZM49.6651 22.079C49.6651 23.1894 48.9066 23.9951 47.8526 23.9951C47.0843 23.9951 46.572 23.4989 46.572 22.7472C46.572 21.6958 47.301 20.836 48.3796 20.836C49.1923 20.836 49.6651 21.3912 49.6651 22.079V22.079ZM47.498 22.7324C47.498 23.0813 47.6704 23.322 47.9807 23.322C48.4683 23.322 48.7392 22.6047 48.7392 22.0888C48.7392 21.8088 48.6259 21.5091 48.2614 21.5091C47.7492 21.5091 47.4881 22.2608 47.4931 22.7324H47.498ZM49.9311 23.9312L50.3103 21.8874C50.3793 21.5042 50.4286 21.1701 50.463 20.9048H51.2314L51.1821 21.3961H51.192C51.3035 21.2237 51.4566 21.0821 51.6374 20.9842C51.8181 20.8864 52.0206 20.8354 52.2263 20.836C52.709 20.836 52.9158 21.1406 52.9454 21.4059C53.0578 21.2326 53.2116 21.0898 53.393 20.9903C53.5744 20.8909 53.7777 20.8379 53.9846 20.836C54.4575 20.836 54.7333 21.1308 54.7333 21.6467C54.7333 21.7793 54.7086 22.0102 54.6742 22.1675L54.3491 23.9312H53.4872L53.7876 22.2805C53.8122 22.1527 53.8319 22.025 53.8319 21.9071C53.8319 21.6958 53.7384 21.5484 53.5266 21.5484C53.2311 21.5484 52.9355 21.9513 52.8223 22.5556L52.5661 23.9312H51.7042L52.0145 22.2657C52.0391 22.1429 52.0588 22.0201 52.0588 21.9218C52.0588 21.7155 51.9899 21.5484 51.7732 21.5484C51.4678 21.5484 51.1526 21.9758 51.0393 22.5703L50.793 23.9312H49.9311V23.9312ZM55.1125 23.4792C55.1125 23.1353 55.3588 22.8454 55.7134 22.8454C56.0188 22.8454 56.2306 23.0665 56.2306 23.3761C56.2341 23.4576 56.2205 23.539 56.1908 23.6151C56.1611 23.6912 56.1159 23.7603 56.058 23.818C56.0001 23.8758 55.9308 23.9209 55.8546 23.9505C55.7783 23.9801 55.6967 23.9937 55.6149 23.9902C55.3145 23.9902 55.1125 23.774 55.1125 23.4792V23.4792ZM58.6785 23.9312C58.6883 23.7494 58.7031 23.548 58.7277 23.3318H58.7031C58.4273 23.833 58.0431 24 57.6885 24C57.1418 24 56.7674 23.5775 56.7674 22.9486C56.7674 21.9267 57.4471 20.836 58.9395 20.836C59.299 20.836 59.6931 20.9048 59.9443 20.9834L59.6241 22.5703C59.5502 22.9634 59.4911 23.5529 59.5059 23.9312H58.6785V23.9312ZM58.9395 21.5337C58.8599 21.5184 58.7792 21.5102 58.6981 21.5091C58.1219 21.5091 57.6983 22.2166 57.6983 22.7816C57.6983 23.0764 57.8165 23.2827 58.0677 23.2827C58.3337 23.2827 58.6588 22.9781 58.7967 22.2362L58.9444 21.5337H58.9395ZM63.4265 20.9048L63.0324 22.9486C62.9585 23.3318 62.9142 23.6561 62.8699 23.9312H62.0818L62.1409 23.4399H62.1262C62.0075 23.6087 61.8507 23.7473 61.6685 23.8446C61.4863 23.9418 61.2837 23.9951 61.0771 24C60.5944 24 60.3038 23.7249 60.3038 23.1501C60.3038 22.983 60.3235 22.8061 60.3678 22.5949L60.683 20.9048H61.5745L61.2692 22.5261C61.2453 22.6558 61.2321 22.7873 61.2298 22.9191C61.2298 23.1157 61.3036 23.2729 61.5302 23.2729C61.8356 23.2729 62.1459 22.9093 62.2641 22.305L62.53 20.9048H63.4265Z" fill="#1C5A87"/>
</svg>
