<svg width="21" height="22" viewBox="0 0 21 22" fill="none" xmlns="http://www.w3.org/2000/svg">
<path d="M22.1333 24.5L13.7333 16.1C13.0667 16.6333 12.3 17.0556 11.4333 17.3667C10.5667 17.6778 9.64444 17.8333 8.66667 17.8333C6.24444 17.8333 4.19467 16.9947 2.51733 15.3173C0.839111 13.6391 0 11.5889 0 9.16667C0 6.74444 0.839111 4.69422 2.51733 3.016C4.19467 1.33867 6.24444 0.5 8.66667 0.5C11.0889 0.5 13.1391 1.33867 14.8173 3.016C16.4947 4.69422 17.3333 6.74444 17.3333 9.16667C17.3333 10.1444 17.1778 11.0667 16.8667 11.9333C16.5556 12.8 16.1333 13.5667 15.6 14.2333L24 22.6333L22.1333 24.5ZM8.66667 15.1667C10.3333 15.1667 11.7502 14.5836 12.9173 13.4173C14.0836 12.2502 14.6667 10.8333 14.6667 9.16667C14.6667 7.5 14.0836 6.08311 12.9173 4.916C11.7502 3.74978 10.3333 3.16667 8.66667 3.16667C7 3.16667 5.58311 3.74978 4.416 4.916C3.24978 6.08311 2.66667 7.5 2.66667 9.16667C2.66667 10.8333 3.24978 12.2502 4.416 13.4173C5.58311 14.5836 7 15.1667 8.66667 15.1667Z" fill="#1C1B1F"/>
</svg>
